<svg width="480" height="480" viewBox="0 0 480 480" fill="none" xmlns="http://www.w3.org/2000/svg">
<rect width="480" height="480" fill="#F5F5F5"/>
<rect width="480" height="480" rx="50" fill="#37526B"/>
<g filter="url(#filter0_d_0_1)">
<rect x="20" y="20" width="440" height="440" rx="40" fill="#50677D"/>
<rect x="18" y="18" width="444" height="444" rx="42" stroke="#FFCD1C" stroke-width="4"/>
</g>
<g filter="url(#filter1_i_0_1)">
<path d="M254.21 134.08C255.03 146.38 255.44 165.513 255.44 191.48C255.44 217.447 253.937 242.73 250.93 267.33C248.197 291.657 245.19 307.373 241.91 314.48C238.357 318.58 234.803 320.63 231.25 320.63C227.697 320.63 225.92 320.22 225.92 319.4C229.747 288.787 231.66 264.87 231.66 247.65C231.66 168.11 219.497 116.177 195.17 91.85L212.39 64.38C234.803 86.2466 262.41 107.567 295.21 128.34C325.277 147.2 349.467 165.377 367.78 182.87C377.073 191.617 384.59 201.867 390.33 213.62C396.07 225.373 398.94 238.357 398.94 252.57C398.94 266.51 395.797 279.63 389.51 291.93C383.223 304.23 375.297 314.207 365.73 321.86C356.437 329.513 345.913 335.937 334.16 341.13C296.987 357.257 252.433 359.717 200.5 348.51C196.4 343.863 194.35 339.763 194.35 336.21C194.35 332.657 194.76 330.88 195.58 330.88C196.4 330.88 198.86 331.427 202.96 332.52C216.353 335.527 230.293 337.03 244.78 337.03C276.76 337.03 303 328.557 323.5 311.61C344 294.39 354.25 274.163 354.25 250.93C354.25 208.017 320.903 169.067 254.21 134.08Z" fill="#FFC700"/>
</g>
<g filter="url(#filter2_i_0_1)">
<path d="M148.6 426.8L148.04 430.72C145.8 432.96 141.693 435.013 135.72 436.88C130.12 438.747 125.64 439.68 122.28 439.68C119.293 439.68 117.8 438.933 117.8 437.44C126.76 383.68 131.24 321.147 131.24 249.84C131.24 178.16 127.133 113.2 118.92 54.96L133.48 44.88L183.32 70.64C176.973 208.4 167.267 317.413 154.2 397.68C159.427 397.68 164.467 397.68 169.32 397.68C225.32 397.68 271.613 388.16 308.2 369.12L317.72 383.68L299.24 431.84C279.453 433.707 256.867 434.64 231.48 434.64C206.093 434.64 178.467 432.027 148.6 426.8Z" fill="#FFC700"/>
</g>
<defs>
<filter id="filter0_d_0_1" x="1" y="1" width="478" height="478" filterUnits="userSpaceOnUse" color-interpolation-filters="sRGB">
<feFlood flood-opacity="0" result="BackgroundImageFix"/>
<feColorMatrix in="SourceAlpha" type="matrix" values="0 0 0 0 0 0 0 0 0 0 0 0 0 0 0 0 0 0 127 0" result="hardAlpha"/>
<feMorphology radius="5" operator="dilate" in="SourceAlpha" result="effect1_dropShadow_0_1"/>
<feOffset/>
<feGaussianBlur stdDeviation="5"/>
<feComposite in2="hardAlpha" operator="out"/>
<feColorMatrix type="matrix" values="0 0 0 0 1 0 0 0 0 0.867084 0 0 0 0 0.395833 0 0 0 0.63 0"/>
<feBlend mode="normal" in2="BackgroundImageFix" result="effect1_dropShadow_0_1"/>
<feBlend mode="normal" in="SourceGraphic" in2="effect1_dropShadow_0_1" result="shape"/>
</filter>
<filter id="filter1_i_0_1" x="184.35" y="64.38" width="214.59" height="308.94" filterUnits="userSpaceOnUse" color-interpolation-filters="sRGB">
<feFlood flood-opacity="0" result="BackgroundImageFix"/>
<feBlend mode="normal" in="SourceGraphic" in2="BackgroundImageFix" result="shape"/>
<feColorMatrix in="SourceAlpha" type="matrix" values="0 0 0 0 0 0 0 0 0 0 0 0 0 0 0 0 0 0 127 0" result="hardAlpha"/>
<feOffset dx="-10" dy="8"/>
<feGaussianBlur stdDeviation="6"/>
<feComposite in2="hardAlpha" operator="arithmetic" k2="-1" k3="1"/>
<feColorMatrix type="matrix" values="0 0 0 0 1 0 0 0 0 0 0 0 0 0 0 0 0 0 0.25 0"/>
<feBlend mode="normal" in2="shape" result="effect1_innerShadow_0_1"/>
</filter>
<filter id="filter2_i_0_1" x="105.8" y="44.88" width="211.92" height="406.8" filterUnits="userSpaceOnUse" color-interpolation-filters="sRGB">
<feFlood flood-opacity="0" result="BackgroundImageFix"/>
<feBlend mode="normal" in="SourceGraphic" in2="BackgroundImageFix" result="shape"/>
<feColorMatrix in="SourceAlpha" type="matrix" values="0 0 0 0 0 0 0 0 0 0 0 0 0 0 0 0 0 0 127 0" result="hardAlpha"/>
<feOffset dx="-14" dy="12"/>
<feGaussianBlur stdDeviation="6"/>
<feComposite in2="hardAlpha" operator="arithmetic" k2="-1" k3="1"/>
<feColorMatrix type="matrix" values="0 0 0 0 1 0 0 0 0 0 0 0 0 0 0 0 0 0 0.25 0"/>
<feBlend mode="normal" in2="shape" result="effect1_innerShadow_0_1"/>
</filter>
</defs>
</svg>
